<svg width="33" height="32" viewBox="0 0 33 32" fill="none" xmlns="http://www.w3.org/2000/svg">
<path d="M15.9848 22.9294C16.1424 22.8359 16.3385 22.8361 16.496 22.9299L22.1123 26.2765L22.1124 26.2766C22.7774 26.6732 23.5512 26.08 23.3862 25.3809L21.8976 19.0878C21.8544 18.9054 21.9169 18.7142 22.0595 18.5925L27.0263 14.3525L27.0264 14.3523C27.5863 13.8748 27.2972 12.9572 26.5404 12.8979L26.5378 12.8977L20.0012 12.351C19.8171 12.3356 19.6566 12.22 19.5836 12.0503L17.0258 6.10363L17.0251 6.10205C16.7377 5.42741 15.7424 5.42741 15.4549 6.10205L15.4541 6.10401L12.8963 12.0373C12.8232 12.2068 12.6628 12.3223 12.4788 12.3377L5.94223 12.8843L5.93962 12.8845L5.93962 12.8845C5.18282 12.9439 4.89377 13.8615 5.45362 14.339L5.45379 14.3391L10.4205 18.5791C10.5631 18.7008 10.6256 18.8921 10.5825 19.0745L9.09385 25.3676L15.9848 22.9294ZM15.9848 22.9294L10.3685 26.2628L10.3676 26.2633M15.9848 22.9294L10.3676 26.2633M10.3676 26.2633C9.70269 26.6598 8.92901 26.0668 9.09379 25.3678L10.3676 26.2633Z" fill="#FFBA79" stroke="#FFBA79" stroke-linejoin="round"/>
</svg>
